<mxfile host="app.diagrams.net" modified="2022-12-27T09:48:27.208Z" agent="5.0 (Windows NT 10.0; Win64; x64) AppleWebKit/537.36 (KHTML, like Gecko) Chrome/108.0.0.0 Safari/537.36" etag="EGjovcs0AMOye4nzK-7o" version="20.7.4" type="github">
  <diagram name="Page-1" id="5f0bae14-7c28-e335-631c-24af17079c00">
    <mxGraphModel dx="1221" dy="727" grid="1" gridSize="10" guides="1" tooltips="1" connect="1" arrows="1" fold="1" page="1" pageScale="1" pageWidth="1100" pageHeight="850" background="none" math="0" shadow="0">
      <root>
        <mxCell id="0" />
        <mxCell id="1" parent="0" />
        <mxCell id="m2c7NOWLVtZAhudmoDI8-1" value="" style="rounded=0;whiteSpace=wrap;html=1;" vertex="1" parent="1">
          <mxGeometry x="390" y="20" width="250" height="140" as="geometry" />
        </mxCell>
        <mxCell id="m2c7NOWLVtZAhudmoDI8-2" value="pdf-generator" style="rounded=1;whiteSpace=wrap;html=1;fontStyle=1" vertex="1" parent="1">
          <mxGeometry x="439" y="30" width="160" height="60" as="geometry" />
        </mxCell>
        <mxCell id="m2c7NOWLVtZAhudmoDI8-3" value="gRPC server (JS)" style="text;html=1;strokeColor=none;fillColor=none;align=center;verticalAlign=middle;whiteSpace=wrap;rounded=0;" vertex="1" parent="1">
          <mxGeometry x="409" y="110" width="220" height="30" as="geometry" />
        </mxCell>
        <mxCell id="m2c7NOWLVtZAhudmoDI8-11" style="edgeStyle=orthogonalEdgeStyle;rounded=0;orthogonalLoop=1;jettySize=auto;html=1;entryX=0.367;entryY=1.01;entryDx=0;entryDy=0;entryPerimeter=0;" edge="1" parent="1" source="m2c7NOWLVtZAhudmoDI8-4" target="m2c7NOWLVtZAhudmoDI8-1">
          <mxGeometry relative="1" as="geometry">
            <Array as="points">
              <mxPoint x="482" y="320" />
            </Array>
          </mxGeometry>
        </mxCell>
        <mxCell id="m2c7NOWLVtZAhudmoDI8-4" value="" style="rounded=0;whiteSpace=wrap;html=1;" vertex="1" parent="1">
          <mxGeometry x="192" y="261" width="250" height="140" as="geometry" />
        </mxCell>
        <mxCell id="m2c7NOWLVtZAhudmoDI8-5" value="fda-api" style="rounded=1;whiteSpace=wrap;html=1;fontStyle=1" vertex="1" parent="1">
          <mxGeometry x="241" y="271" width="160" height="60" as="geometry" />
        </mxCell>
        <mxCell id="m2c7NOWLVtZAhudmoDI8-6" value="gRPC client (goLang)" style="text;html=1;strokeColor=none;fillColor=none;align=center;verticalAlign=middle;whiteSpace=wrap;rounded=0;" vertex="1" parent="1">
          <mxGeometry x="211" y="351" width="220" height="30" as="geometry" />
        </mxCell>
        <mxCell id="m2c7NOWLVtZAhudmoDI8-10" style="edgeStyle=orthogonalEdgeStyle;rounded=0;orthogonalLoop=1;jettySize=auto;html=1;entryX=0.676;entryY=1.016;entryDx=0;entryDy=0;entryPerimeter=0;" edge="1" parent="1">
          <mxGeometry relative="1" as="geometry">
            <mxPoint x="559" y="161.24" as="targetPoint" />
            <mxPoint x="600" y="319" as="sourcePoint" />
            <Array as="points">
              <mxPoint x="559" y="319" />
            </Array>
          </mxGeometry>
        </mxCell>
        <mxCell id="m2c7NOWLVtZAhudmoDI8-7" value="" style="rounded=0;whiteSpace=wrap;html=1;" vertex="1" parent="1">
          <mxGeometry x="600" y="261" width="250" height="140" as="geometry" />
        </mxCell>
        <mxCell id="m2c7NOWLVtZAhudmoDI8-8" value="ldm-api" style="rounded=1;whiteSpace=wrap;html=1;fontStyle=1" vertex="1" parent="1">
          <mxGeometry x="649" y="271" width="160" height="60" as="geometry" />
        </mxCell>
        <mxCell id="m2c7NOWLVtZAhudmoDI8-9" value="gRPC client (goLang)" style="text;html=1;strokeColor=none;fillColor=none;align=center;verticalAlign=middle;whiteSpace=wrap;rounded=0;" vertex="1" parent="1">
          <mxGeometry x="619" y="351" width="220" height="30" as="geometry" />
        </mxCell>
        <mxCell id="m2c7NOWLVtZAhudmoDI8-12" value="Proto request" style="text;html=1;strokeColor=none;fillColor=none;align=center;verticalAlign=middle;whiteSpace=wrap;rounded=0;" vertex="1" parent="1">
          <mxGeometry x="480" y="214" width="80" height="30" as="geometry" />
        </mxCell>
      </root>
    </mxGraphModel>
  </diagram>
</mxfile>
